<svg width="54" height="65" viewBox="0 0 54 65" fill="none" xmlns="http://www.w3.org/2000/svg">
<path d="M41.805 57.9777H46.5856C47.0433 57.9777 46.9924 57.2148 46.9924 56.7571V6.05206C46.9924 5.59434 47.0433 5.59435 46.5856 5.59435H7.52692C7.0692 5.59435 6.30634 5.59434 6.30634 6.05206V10.3241L41.805 57.9777Z" fill="#E8E3E3"/>
<path d="M47.6536 53.4005H52.1799C52.6376 53.4005 52.5868 52.1291 52.5868 51.6713V1.47487C52.5868 1.01715 52.6376 0.508575 52.1799 0.508575H13.1212C12.6635 0.508575 11.9007 1.01715 11.9007 1.47487V5.59434L47.6536 53.4005Z" fill="#E8E3E3"/>
<path d="M41.3981 62.7583C41.3981 63.216 41.0421 63.572 40.5844 63.572H1.57657C1.11885 63.572 0.762848 63.216 0.762848 62.7583V11.4938C0.762848 11.0361 1.11885 10.6801 1.57657 10.6801H40.5844C41.0421 10.6801 41.3981 11.0361 41.3981 11.4938V62.7583Z" fill="#F4EFEF"/>
<path d="M37.3295 15.7659H4.78061V25.9374H37.3295V15.7659Z" fill="#AEB1B4"/>
<path d="M17.495 46.2804H5.28918V58.4863H17.495V46.2804Z" fill="#7D8B95"/>
<path d="M27.158 30.7689H4.78061C4.47546 30.7689 4.27203 30.5654 4.27203 30.2603C4.27203 29.9551 4.47546 29.7517 4.78061 29.7517H27.158C27.4631 29.7517 27.6665 29.9551 27.6665 30.2603C27.6665 30.5654 27.4631 30.7689 27.158 30.7689Z" fill="black"/>
<path d="M27.158 34.8375H4.78061C4.47546 34.8375 4.27203 34.634 4.27203 34.3289C4.27203 34.0237 4.47546 33.8203 4.78061 33.8203H27.158C27.4631 33.8203 27.6665 34.0237 27.6665 34.3289C27.6665 34.634 27.4631 34.8375 27.158 34.8375Z" fill="black"/>
<path d="M27.158 38.9061H4.78061C4.47546 38.9061 4.27203 38.7027 4.27203 38.3975C4.27203 38.0924 4.47546 37.8889 4.78061 37.8889H27.158C27.4631 37.8889 27.6665 38.0924 27.6665 38.3975C27.6665 38.7027 27.4631 38.9061 27.158 38.9061Z" fill="black"/>
<path d="M27.158 42.9747H4.78061C4.47546 42.9747 4.27203 42.7713 4.27203 42.4661C4.27203 42.161 4.47546 41.9575 4.78061 41.9575H27.158C27.4631 41.9575 27.6665 42.161 27.6665 42.4661C27.6665 42.7713 27.4631 42.9747 27.158 42.9747Z" fill="black"/>
<path d="M37.3295 47.0433H22.0722C21.7671 47.0433 21.5637 46.8399 21.5637 46.5347C21.5637 46.2296 21.7671 46.0261 22.0722 46.0261H37.3295C37.6347 46.0261 37.8381 46.2296 37.8381 46.5347C37.8381 46.8399 37.6347 47.0433 37.3295 47.0433Z" fill="black"/>
<path d="M37.3295 51.1119H22.0722C21.7671 51.1119 21.5637 50.9085 21.5637 50.6033C21.5637 50.2982 21.7671 50.0947 22.0722 50.0947H37.3295C37.6347 50.0947 37.8381 50.2982 37.8381 50.6033C37.8381 50.9085 37.6347 51.1119 37.3295 51.1119Z" fill="black"/>
<path d="M37.3295 55.1805H22.0722C21.7671 55.1805 21.5637 54.9771 21.5637 54.6719C21.5637 54.3668 21.7671 54.1634 22.0722 54.1634H37.3295C37.6347 54.1634 37.8381 54.3668 37.8381 54.6719C37.8381 54.9771 37.6347 55.1805 37.3295 55.1805Z" fill="black"/>
<path d="M37.3295 59.2491H22.0722C21.7671 59.2491 21.5637 59.0457 21.5637 58.7406C21.5637 58.4354 21.7671 58.232 22.0722 58.232H37.3295C37.6347 58.232 37.8381 58.4354 37.8381 58.7406C37.8381 59.0457 37.6347 59.2491 37.3295 59.2491Z" fill="black"/>
<path d="M37.3295 30.7689H30.718C30.4128 30.7689 30.2094 30.5654 30.2094 30.2603C30.2094 29.9551 30.4128 29.7517 30.718 29.7517H37.3295C37.6346 29.7517 37.8381 29.9551 37.8381 30.2603C37.8381 30.5654 37.6346 30.7689 37.3295 30.7689Z" fill="black"/>
<path d="M37.3295 34.8375H30.718C30.4128 34.8375 30.2094 34.634 30.2094 34.3289C30.2094 34.0237 30.4128 33.8203 30.718 33.8203H37.3295C37.6346 33.8203 37.8381 34.0237 37.8381 34.3289C37.8381 34.634 37.6346 34.8375 37.3295 34.8375Z" fill="black"/>
<path d="M37.3295 38.9061H30.718C30.4128 38.9061 30.2094 38.7027 30.2094 38.3975C30.2094 38.0924 30.4128 37.8889 30.718 37.8889H37.3295C37.6346 37.8889 37.8381 38.0924 37.8381 38.3975C37.8381 38.7027 37.6346 38.9061 37.3295 38.9061Z" fill="black"/>
<path d="M37.3295 42.9747H30.718C30.4128 42.9747 30.2094 42.7713 30.2094 42.4661C30.2094 42.161 30.4128 41.9575 30.718 41.9575H37.3295C37.6346 41.9575 37.8381 42.161 37.8381 42.4661C37.8381 42.7713 37.6346 42.9747 37.3295 42.9747Z" fill="black"/>
<path d="M40.3301 64.3349H1.3223C0.559433 64.3349 0 63.7246 0 63.0126V11.7481C0 10.9852 0.610291 10.4258 1.3223 10.4258H40.3301C41.093 10.4258 41.6524 11.0361 41.6524 11.7481V62.9617C41.6524 63.7246 41.0421 64.3349 40.3301 64.3349ZM1.27144 11.443C1.11887 11.443 0.966295 11.5955 0.966295 11.7481V62.9617C0.966295 63.1143 1.11887 63.2669 1.27144 63.2669H40.2792C40.4318 63.2669 40.5844 63.1143 40.5844 62.9617V11.7481C40.5844 11.5955 40.4318 11.443 40.2792 11.443H1.27144Z" fill="black"/>
<path d="M37.0752 26.7002H4.52634C4.22119 26.7002 4.01776 26.4968 4.01776 26.1917V16.0201C4.01776 15.715 4.22119 15.5116 4.52634 15.5116H37.0752C37.3804 15.5116 37.5838 15.715 37.5838 16.0201V26.1917C37.5838 26.4968 37.3804 26.7002 37.0752 26.7002ZM5.03491 25.6831H36.5666V16.5287H5.03491V25.6831Z" fill="black"/>
<path d="M17.2407 59.2491H5.03491C4.72977 59.2491 4.52634 59.0457 4.52634 58.7405V46.5347C4.52634 46.2296 4.72977 46.0261 5.03491 46.0261H17.2407C17.5459 46.0261 17.7493 46.2296 17.7493 46.5347V58.7405C17.7493 59.0457 17.5459 59.2491 17.2407 59.2491ZM5.54349 58.232H16.7322V47.0433H5.54349V58.232Z" fill="black"/>
<path d="M46.1788 58.7405H41.3981C41.093 58.7405 40.8896 58.5371 40.8896 58.232C40.8896 57.9268 41.093 57.7234 41.3981 57.7234H46.1788C46.3313 57.7234 46.4839 57.5708 46.4839 57.4183V6.15378C46.4839 6.00121 46.3313 5.84863 46.1788 5.84863H7.17096C7.01839 5.84863 6.86582 6.00121 6.86582 6.15378V10.6801C6.86582 10.9853 6.66239 11.1887 6.35724 11.1887C6.05209 11.1887 5.84866 10.9853 5.84866 10.6801V6.15378C5.84866 5.39092 6.45895 4.83148 7.17096 4.83148H46.1788C46.9416 4.83148 47.501 5.44177 47.501 6.15378V57.3674C47.501 58.1303 46.8908 58.7405 46.1788 58.7405Z" fill="black"/>
<path d="M51.7731 53.9091H46.9924C46.6873 53.9091 46.4839 53.7056 46.4839 53.4005C46.4839 53.0953 46.6873 52.8919 46.9924 52.8919H51.7731C51.9256 52.8919 52.0782 52.7393 52.0782 52.5868V1.3223C52.0782 1.16972 51.9256 1.01715 51.7731 1.01715H12.7653C12.6127 1.01715 12.4601 1.16972 12.4601 1.3223V4.83147C12.4601 5.13662 12.2567 5.34005 11.9515 5.34005C11.6464 5.34005 11.443 5.13662 11.443 4.83147V1.3223C11.443 0.559434 12.0533 0 12.7653 0H51.7731C52.5359 0 53.0953 0.610291 53.0953 1.3223V52.5359C53.0953 53.2988 52.4851 53.9091 51.7731 53.9091Z" fill="black"/>
</svg>
